<svg width="85" height="85" viewBox="0 0 85 85" fill="none" xmlns="http://www.w3.org/2000/svg">
<g clip-path="url(#clip0_67_201)">
<path d="M43.621 10.8751C43.2699 10.7116 42.8873 10.627 42.5 10.627C42.1128 10.627 41.7302 10.7116 41.3791 10.8751L1.53534 29.4688C1.06615 29.6878 0.671199 30.0392 0.399054 30.4796C0.12691 30.9201 -0.0105605 31.4306 0.00355039 31.9482C0.0176613 32.4657 0.182738 32.9679 0.478479 33.3929C0.77422 33.818 1.18773 34.1473 1.66815 34.3404L41.5119 50.2779C42.1461 50.532 42.8539 50.532 43.4881 50.2779L74.375 37.9316V69.0629C72.9661 69.0629 71.6148 69.6226 70.6185 70.6189C69.6222 71.6152 69.0625 72.9664 69.0625 74.3754V85.0004H85V74.3754C85 72.9664 84.4403 71.6152 83.444 70.6189C82.4477 69.6226 81.0965 69.0629 79.6875 69.0629V35.8013L83.3319 34.3404C83.8123 34.1473 84.2258 33.818 84.5216 33.3929C84.8173 32.9679 84.9824 32.4657 84.9965 31.9482C85.0106 31.4306 84.8731 30.9201 84.601 30.4796C84.3288 30.0392 83.9339 29.6878 83.4647 29.4688L43.621 10.8751Z" fill="#F4F1EA"/>
<path d="M22.185 47.982C21.843 47.8532 21.478 47.7963 21.113 47.815C20.748 47.8336 20.3907 47.9274 20.0636 48.0905C19.7365 48.2536 19.4465 48.4824 19.2119 48.7626C18.9773 49.0429 18.803 49.3685 18.7 49.7192L16.0438 58.7505C15.8577 59.3845 15.9146 60.0651 16.2034 60.6594C16.4922 61.2537 16.9922 61.7191 17.6056 61.9645L41.5119 71.527C42.1461 71.7812 42.8539 71.7812 43.4881 71.527L67.3944 61.9645C68.0078 61.7191 68.5078 61.2537 68.7966 60.6594C69.0854 60.0651 69.1423 59.3845 68.9563 58.7505L66.3 49.7192C66.197 49.3685 66.0227 49.0429 65.7881 48.7626C65.5535 48.4824 65.2635 48.2536 64.9364 48.0905C64.6093 47.9274 64.2521 47.8336 63.887 47.815C63.522 47.7963 63.1571 47.8532 62.815 47.982L42.5 55.6002L22.185 47.982Z" fill="#F4F1EA"/>
</g>
<defs>
<clipPath id="clip0_67_201">
<rect width="85" height="85" fill="white"/>
</clipPath>
</defs>
</svg>
