<svg width="85" height="85" viewBox="0 0 85 85" fill="none" xmlns="http://www.w3.org/2000/svg">
<g clip-path="url(#clip0_67_192)">
<path d="M7.96875 5.3125C7.26427 5.3125 6.58864 5.59235 6.0905 6.0905C5.59235 6.58864 5.3125 7.26427 5.3125 7.96875V23.9062C5.3125 24.6107 5.03265 25.2864 4.5345 25.7845C4.03636 26.2826 3.36073 26.5625 2.65625 26.5625C1.95177 26.5625 1.27614 26.2826 0.777998 25.7845C0.279854 25.2864 0 24.6107 0 23.9062V7.96875C0 5.85531 0.839562 3.82842 2.33399 2.33399C3.82842 0.839562 5.85531 0 7.96875 0L23.9062 0C24.6107 0 25.2864 0.279854 25.7845 0.777998C26.2826 1.27614 26.5625 1.95177 26.5625 2.65625C26.5625 3.36073 26.2826 4.03636 25.7845 4.5345C25.2864 5.03265 24.6107 5.3125 23.9062 5.3125H7.96875ZM58.4375 2.65625C58.4375 1.95177 58.7174 1.27614 59.2155 0.777998C59.7136 0.279854 60.3893 0 61.0938 0L77.0312 0C79.1447 0 81.1716 0.839562 82.666 2.33399C84.1604 3.82842 85 5.85531 85 7.96875V23.9062C85 24.6107 84.7201 25.2864 84.222 25.7845C83.7239 26.2826 83.0482 26.5625 82.3438 26.5625C81.6393 26.5625 80.9636 26.2826 80.4655 25.7845C79.9674 25.2864 79.6875 24.6107 79.6875 23.9062V7.96875C79.6875 7.26427 79.4076 6.58864 78.9095 6.0905C78.4114 5.59235 77.7357 5.3125 77.0312 5.3125H61.0938C60.3893 5.3125 59.7136 5.03265 59.2155 4.5345C58.7174 4.03636 58.4375 3.36073 58.4375 2.65625ZM2.65625 58.4375C3.36073 58.4375 4.03636 58.7174 4.5345 59.2155C5.03265 59.7136 5.3125 60.3893 5.3125 61.0938V77.0312C5.3125 77.7357 5.59235 78.4114 6.0905 78.9095C6.58864 79.4076 7.26427 79.6875 7.96875 79.6875H23.9062C24.6107 79.6875 25.2864 79.9674 25.7845 80.4655C26.2826 80.9636 26.5625 81.6393 26.5625 82.3438C26.5625 83.0482 26.2826 83.7239 25.7845 84.222C25.2864 84.7201 24.6107 85 23.9062 85H7.96875C5.85531 85 3.82842 84.1604 2.33399 82.666C0.839562 81.1716 0 79.1447 0 77.0312L0 61.0938C0 60.3893 0.279854 59.7136 0.777998 59.2155C1.27614 58.7174 1.95177 58.4375 2.65625 58.4375ZM82.3438 58.4375C83.0482 58.4375 83.7239 58.7174 84.222 59.2155C84.7201 59.7136 85 60.3893 85 61.0938V77.0312C85 79.1447 84.1604 81.1716 82.666 82.666C81.1716 84.1604 79.1447 85 77.0312 85H61.0938C60.3893 85 59.7136 84.7201 59.2155 84.222C58.7174 83.7239 58.4375 83.0482 58.4375 82.3438C58.4375 81.6393 58.7174 80.9636 59.2155 80.4655C59.7136 79.9674 60.3893 79.6875 61.0938 79.6875H77.0312C77.7357 79.6875 78.4114 79.4076 78.9095 78.9095C79.4076 78.4114 79.6875 77.7357 79.6875 77.0312V61.0938C79.6875 60.3893 79.9674 59.7136 80.4655 59.2155C80.9636 58.7174 81.6393 58.4375 82.3438 58.4375Z" fill="#F4F1EA"/>
<path d="M15.9375 74.375C15.9375 74.375 10.625 74.375 10.625 69.0625C10.625 63.75 15.9375 47.8125 42.5 47.8125C69.0625 47.8125 74.375 63.75 74.375 69.0625C74.375 74.375 69.0625 74.375 69.0625 74.375H15.9375ZM58.4375 26.5625C58.4375 30.7894 56.7584 34.8432 53.7695 37.832C50.7807 40.8209 46.7269 42.5 42.5 42.5C38.2731 42.5 34.2193 40.8209 31.2305 37.832C28.2416 34.8432 26.5625 30.7894 26.5625 26.5625C26.5625 22.3356 28.2416 18.2818 31.2305 15.293C34.2193 12.3041 38.2731 10.625 42.5 10.625C46.7269 10.625 50.7807 12.3041 53.7695 15.293C56.7584 18.2818 58.4375 22.3356 58.4375 26.5625Z" fill="#F4F1EA"/>
</g>
<defs>
<clipPath id="clip0_67_192">
<rect width="85" height="85" fill="white"/>
</clipPath>
</defs>
</svg>
