<svg width="24" height="24" viewBox="0 0 24 24" fill="none" xmlns="http://www.w3.org/2000/svg">
<path d="M5.432 8.00293H0.474487V23.9996H5.432V8.00293Z" fill="#1A1A1A"/>
<path d="M2.92806 5.90412C4.54354 5.90412 5.85612 4.582 5.85612 2.94701C5.85612 1.31203 4.55364 0 2.92806 0C1.30248 0 0 1.32212 0 2.95711C0 4.59209 1.31258 5.91421 2.92806 5.91421V5.90412Z" fill="#1A1A1A"/>
<path d="M13.3479 15.603C13.3479 13.3524 14.3879 12.0101 16.3669 12.0101C18.1843 12.0101 19.0627 13.2918 19.0627 15.603V24H23.9899V13.8671C23.9899 9.57775 21.5566 7.50879 18.1641 7.50879C14.7716 7.50879 13.3378 10.153 13.3378 10.153V7.99323H8.58228V23.9899H13.3378V15.5929L13.3479 15.603Z" fill="#1A1A1A"/>
</svg>
