<?xml version="1.0" encoding="UTF-8"?>
<svg id="LOGOS_NUEVOS" data-name="LOGOS NUEVOS" xmlns="http://www.w3.org/2000/svg" xmlns:xlink="http://www.w3.org/1999/xlink" viewBox="0 0 1019.88 761.89">
  <defs>
    <style>
      .cls-1 {
        fill: url(#Degradado_sin_nombre_3);
      }

      .cls-1, .cls-2 {
        stroke-width: 0px;
      }

      .cls-2 {
        fill: #f4f1ea;
      }
    </style>
    <linearGradient id="Degradado_sin_nombre_3" data-name="Degradado sin nombre 3" x1="662.18" y1="370.63" x2="830.37" y2="370.63" gradientUnits="userSpaceOnUse">
      <stop offset=".1" stop-color="#ff7542"/>
      <stop offset=".21" stop-color="#ee6e52"/>
      <stop offset="1" stop-color="#793fc7"/>
    </linearGradient>
  </defs>
  <path class="cls-2" d="m311.38,440.62v48.65h-176.52V207.82h62.73v232.8h113.8Z"/>
  <path class="cls-2" d="m428.53,207.82h67.84l43.8,124.65c10.05,29.74,19.32,57.9,26.16,84.82h.79c6.84-25.32,15.68-53.87,26.55-84.82l43.41-124.65h67.14l-105.35,281.44h-64.3l-106.05-281.44Z"/>
  <path class="cls-2" d="m715.08,207.83h63.81s106.14,281.44,106.14,281.44h-67.14l-20.1-59.5h-102.14l-20.49,59.5h-65.54l105.47-281.44Z"/>
  <path class="cls-2" d="m354.45,207.82h63.15l106.14,281.44h-67.14l-20.1-59.5h-102.14l-20.49,59.5h-65.54l106.14-281.44Zm65.15,173.3l-9.66-28.55c-11.65-34.18-19.28-60.32-24.52-80.81h-.39c-5.24,20.49-12.87,46.63-25.34,83.63l-8.84,25.73h68.75Z"/>
  <path class="cls-1" d="m757.15,468.01c53.7-22.05,95.2-76.18,60.45-160.79l-15.03-36.61-2.14-5.8c-1.87,30.23-19.94,58.57-60.89,79.22l-29.12,14.78c-42.92,20.49-56.53,49.85-43.5,81.59,12.69,30.91,43.06,46.97,90.23,27.6Z"/>
</svg>