<?xml version="1.0" encoding="UTF-8"?>
<svg id="LOGOS_NUEVOS" xmlns="http://www.w3.org/2000/svg" xmlns:xlink="http://www.w3.org/1999/xlink" version="1.1" viewBox="0 0 754.9 282.9">
  <!-- Generator: Adobe Illustrator 30.1.0, SVG Export Plug-In . SVG Version: 2.1.1 Build 136)  -->
  <defs>
    <style>
      .st0 {
        fill: url(#Degradado_sin_nombre);
      }

      .st1 {
        fill: #1a1a1a;
      }
    </style>
    <linearGradient id="Degradado_sin_nombre" data-name="Degradado sin nombre" x1="528.2" y1="186.4" x2="696.4" y2="186.4" gradientTransform="translate(0 350) scale(1 -1)" gradientUnits="userSpaceOnUse">
      <stop offset="0" stop-color="#793fc7"/>
      <stop offset=".2" stop-color="#8745b8"/>
      <stop offset=".5" stop-color="#af5491"/>
      <stop offset=".9" stop-color="#ed6e53"/>
      <stop offset="1" stop-color="#ff7542"/>
    </linearGradient>
  </defs>
  <path class="st1" d="M177.4,233.6v48.6H.9V.8h62.7v232.8h113.8,0Z"/>
  <path class="st1" d="M294.5.8h67.8l43.8,124.6c10,29.7,19.3,57.9,26.2,84.8h.8c6.8-25.3,15.7-53.9,26.5-84.8L503.1.8h67.1l-105.3,281.4h-64.3L294.5.8h0Z"/>
  <path class="st1" d="M581.1.8h63.8l106.1,281.4h-67.1l-20.1-59.5h-102.1l-20.5,59.5h-65.5L581.1.8h0Z"/>
  <path class="st1" d="M220.5.8h63.1l106.1,281.4h-67.1l-20.1-59.5h-102.1l-20.5,59.5h-65.5L220.5.8h0ZM285.6,174.1l-9.7-28.5c-11.6-34.2-19.3-60.3-24.5-80.8h-.4c-5.2,20.5-12.9,46.6-25.3,83.6l-8.8,25.7h68.8Z"/>
  <path class="st0" d="M623.2,261c53.7-22,95.2-76.2,60.5-160.8l-15-36.6-2.1-5.8c-1.9,30.2-19.9,58.6-60.9,79.2l-29.1,14.8c-42.9,20.5-56.5,49.9-43.5,81.6,12.7,30.9,43.1,47,90.2,27.6h0Z"/>
</svg>