<?xml version="1.0" encoding="UTF-8"?>
<svg id="LOGOS_NUEVOS" data-name="LOGOS NUEVOS" xmlns="http://www.w3.org/2000/svg" viewBox="0 0 1019.88 761.89">
  <defs>
    <style>
      .cls-1 {
        stroke-width: 0px;
      }
    </style>
  </defs>
  <g>
    <path class="cls-1" d="m147.12,509.21h-12.26v-5.96h31.19v5.96h-12.26v34.93h-6.66v-34.93Z"/>
    <path class="cls-1" d="m169.96,503.25h6.42v8.64c0,1.46,0,2.57-.12,4.73h.12c1.64-2.63,4.56-5.55,9.75-5.55,7.01,0,11.33,5.02,11.33,12.79v20.27h-6.42v-19.74c0-5.55-2.86-7.59-6.6-7.59-4.5,0-8.06,3.15-8.06,9.23v18.11h-6.42v-40.88Z"/>
    <path class="cls-1" d="m233.5,530.35h-24.24c.76,5.72,4.26,9.17,9.05,9.17,3.74,0,6.77-2.1,7.88-5.26h7.01c-1.34,6.25-7.13,10.81-14.89,10.81-9.46,0-15.83-6.78-15.83-17s6.48-17,15.83-17c8.76,0,15.19,6.02,15.19,14.08v5.2Zm-24.18-5.72h17.7c-.7-4.73-3.97-8-8.7-8s-8.18,3.44-8.99,8Z"/>
    <path class="cls-1" d="m253.58,528.6v-25.35h6.83v25.23c0,7.18,4.44,10.98,9.93,10.92,5.43-.06,9.87-3.74,9.87-10.92v-25.23h6.89v25.35c0,10.63-7.3,16.59-16.76,16.59s-16.76-5.96-16.76-16.59Z"/>
    <path class="cls-1" d="m332.31,527.84v16.3h-6.42l1.11-6.31c-2.74,4.26-7.59,7.24-14.43,7.24-11.56,0-19.8-8.47-19.8-21.43s7.59-21.32,20.44-21.32c11.86,0,18.28,7.54,19.16,16.59h-6.89c-.47-5.78-4.91-10.86-12.26-10.86-8.35,0-13.55,6.48-13.55,15.59,0,9.7,6.02,15.71,13.55,15.71,7.01,0,11.04-5.2,11.68-9.35h-12.32v-5.96h16c2.04,0,3.74,1.75,3.74,3.8Z"/>
    <path class="cls-1" d="m337.27,523.64c0-12.56,7.71-21.32,20.5-21.32,11.86,0,18.4,7.54,19.33,16.59h-6.89c-.47-5.78-4.79-10.86-12.44-10.86-8.41,0-13.61,6.48-13.61,15.59,0,9.64,5.96,15.71,13.61,15.71s11.8-5.55,12.44-10.1h6.89c-1.17,8.41-7.83,15.83-19.33,15.83-12.21,0-20.5-8.47-20.5-21.43Z"/>
    <path class="cls-1" d="m420.73,533.8h-16.35l-3.68,10.34h-7.01l15.54-40.88h6.66l15.54,40.88h-7.01l-3.68-10.34Zm-2.1-5.96l-6.07-17.11-6.07,17.11h12.15Z"/>
    <path class="cls-1" d="m462.78,546.01c0,4.85-3.15,8.06-9.81,8.06h-10.8c-5.84,0-8.94-2.45-8.94-6.02,0-2.8,1.52-4.96,5.26-5.84-3.8-.82-5.55-3.44-5.55-6.13s1.93-5.2,5.72-5.84c-2.39-1.93-3.8-4.73-3.8-8.12,0-6.77,5.72-11.04,13.02-11.04,3.56,0,6.72.99,9.05,2.8h.06c-.18-1.29,1.58-2.69,3.1-2.69h2.39v5.49h-1.17c-.53,0-1.23-.06-1.99-.17.99,1.58,1.58,3.45,1.58,5.61,0,6.78-5.78,11.04-13.02,11.04h-6.6c-1.69,0-2.69.82-2.69,2.16,0,1.81,1.69,2.92,4.91,2.92h9.58c6.54,0,9.7,2.98,9.7,7.77Zm-6.72,0c0-1.69-.99-2.16-3.1-2.16h-10.8c-1.87,0-3.04.7-3.04,2.16,0,1.81,1.11,2.45,2.98,2.45h10.98c2.04,0,2.98-.7,2.98-2.45Zm-15.48-15.94h-.41.41Zm.93-7.94c0,3.62,2.74,5.55,6.37,5.49,3.56-.06,6.31-1.87,6.31-5.49s-2.74-5.43-6.31-5.49c-3.62-.06-6.37,1.93-6.37,5.49Z"/>
    <path class="cls-1" d="m495.89,530.35h-24.24c.76,5.72,4.26,9.17,9.05,9.17,3.74,0,6.77-2.1,7.88-5.26h7.01c-1.34,6.25-7.13,10.81-14.89,10.81-9.46,0-15.83-6.78-15.83-17s6.48-17,15.83-17c8.76,0,15.18,6.02,15.18,14.08v5.2Zm-24.18-5.72h17.7c-.7-4.73-3.97-8-8.7-8s-8.18,3.44-8.99,8Z"/>
    <path class="cls-1" d="m501.2,512.01h6.31v4.62h.12c1.64-2.63,4.56-5.55,9.75-5.55,7.01,0,11.33,5.02,11.33,12.79v20.27h-6.42v-19.74c0-5.55-2.86-7.59-6.6-7.59-4.5,0-8.06,3.15-8.06,9.23v18.11h-6.42v-32.12Z"/>
    <path class="cls-1" d="m533.73,528.02c0-9.99,6.02-16.94,16.12-16.94,9.23,0,14.31,5.96,15.01,13.2h-6.66c-.29-4.09-3.21-7.65-8.35-7.65-5.84,0-9.46,4.73-9.46,11.39,0,7.07,4.15,11.51,9.46,11.51s7.88-3.85,8.35-7.01h6.66c-.88,6.6-6.07,12.56-15.01,12.56-9.64,0-16.12-6.78-16.12-17.05Z"/>
    <path class="cls-1" d="m598.56,512.01l-15.83,38.43c-.82,2.16-2.92,3.62-5.26,3.62h-9.58v-5.61h9.11l2.51-6.07-12.44-30.37h7.07l8.64,23.13,8.64-23.13h7.13Z"/>
  </g>
  <path class="cls-1" d="m311.38,440.62v48.65h-176.52V207.82h62.73v232.8h113.8Z"/>
  <path class="cls-1" d="m428.53,207.82h67.84l43.8,124.65c10.05,29.74,19.32,57.9,26.16,84.82h.79c6.84-25.32,15.68-53.87,26.55-84.82l43.41-124.65h67.14l-105.35,281.44h-64.3l-106.05-281.44Z"/>
  <path class="cls-1" d="m354.45,207.82h63.15l106.14,281.44h-67.14l-20.1-59.5h-102.14l-20.49,59.5h-65.54l106.14-281.44Zm65.15,173.3l-9.66-28.55c-11.65-34.18-19.28-60.32-24.52-80.81h-.39c-5.24,20.49-12.87,46.63-25.34,83.63l-8.84,25.73h68.75Z"/>
  <g>
    <path class="cls-1" d="m666.92,440.41c-13.03-31.74.58-61.1,43.5-81.59l29.12-14.78c40.91-20.63,58.98-48.93,60.89-79.12l-21.53-57.1h-63.81s-105.47,281.44-105.47,281.44h65.54l8.62-25.04c-7.29-6.11-12.92-14.25-16.85-23.82Z"/>
    <path class="cls-1" d="m826.19,333.24c11.33,46.04-1.47,81.42-25.27,105.82l16.96,50.21h67.14l-58.84-156.03Z"/>
  </g>
</svg>