<?xml version="1.0" encoding="UTF-8"?>
<svg id="LOGOS_NUEVOS" data-name="LOGOS NUEVOS" xmlns="http://www.w3.org/2000/svg" viewBox="0 0 1019.88 761.89">
  <defs>
    <style>
      .cls-1 {
        fill: #f4f1ea;
        stroke-width: 0px;
      }
    </style>
  </defs>
  <path class="cls-1" d="m311.38,440.62v48.65h-176.52V207.82h62.73v232.8h113.8Z"/>
  <path class="cls-1" d="m428.53,207.82h67.84l43.8,124.65c10.05,29.74,19.32,57.9,26.16,84.82h.79c6.84-25.32,15.68-53.87,26.55-84.82l43.41-124.65h67.14l-105.35,281.44h-64.3l-106.05-281.44Z"/>
  <path class="cls-1" d="m354.45,207.82h63.15l106.14,281.44h-67.14l-20.1-59.5h-102.14l-20.49,59.5h-65.54l106.14-281.44Zm65.15,173.3l-9.66-28.55c-11.65-34.18-19.28-60.32-24.52-80.81h-.39c-5.24,20.49-12.87,46.63-25.34,83.63l-8.84,25.73h68.75Z"/>
  <g>
    <path class="cls-1" d="m666.92,440.41c-13.03-31.74.58-61.1,43.5-81.59l29.12-14.78c40.91-20.63,58.98-48.93,60.89-79.12l-21.53-57.1h-63.81s-105.47,281.44-105.47,281.44h65.54l8.62-25.04c-7.29-6.11-12.92-14.25-16.85-23.82Z"/>
    <path class="cls-1" d="m826.19,333.24c11.33,46.04-1.47,81.42-25.27,105.82l16.96,50.21h67.14l-58.84-156.03Z"/>
  </g>
</svg>